<svg width="19" height="19" viewBox="0 0 19 19" fill="none" xmlns="http://www.w3.org/2000/svg">
<path d="M2.188 4.376C3.3964 4.376 4.376 3.3964 4.376 2.188C4.376 0.979601 3.3964 0 2.188 0C0.979601 0 0 0.979601 0 2.188C0 3.3964 0.979601 4.376 2.188 4.376Z" fill="#EAEAEA"/>
<path d="M6.44199 6.03401V18.173H10.211V12.17C10.211 10.586 10.509 9.05201 12.473 9.05201C14.41 9.05201 14.434 10.863 14.434 12.27V18.174H18.205V11.517C18.205 8.24701 17.501 5.73401 13.679 5.73401C11.844 5.73401 10.614 6.74101 10.111 7.69401H10.06V6.03401H6.44199ZM0.299988 6.03401H4.07499V18.173H0.299988V6.03401Z" fill="#EAEAEA"/>
</svg>
