<?xml version="1.0" standalone="no"?>
<!DOCTYPE svg PUBLIC "-//W3C//DTD SVG 20010904//EN"
 "http://www.w3.org/TR/2001/REC-SVG-20010904/DTD/svg10.dtd">
<svg version="1.0" xmlns="http://www.w3.org/2000/svg"
 width="1082.000000pt" height="1082.000000pt" viewBox="0 0 1082.000000 1082.000000"
 preserveAspectRatio="xMidYMid meet">
<metadata>
Created by potrace 1.11, written by Peter Selinger 2001-2013
</metadata>
<g transform="translate(0.000000,1082.000000) scale(0.100000,-0.100000)"
fill="#000000" stroke="none">
<path d="M5158 10815 c-2 -1 -55 -5 -118 -9 -63 -4 -128 -9 -145 -11 -16 -2
-57 -6 -90 -10 -33 -3 -71 -7 -85 -10 -14 -2 -59 -9 -100 -14 -175 -22 -464
-84 -670 -142 -770 -218 -1458 -588 -2065 -1109 -181 -155 -409 -380 -541
-535 -38 -44 -75 -86 -82 -93 -6 -8 -42 -53 -79 -100 -37 -48 -70 -89 -74 -92
-3 -3 -38 -50 -77 -105 -39 -55 -79 -111 -89 -125 -45 -62 -167 -259 -239
-386 -214 -376 -377 -764 -499 -1191 -25 -89 -48 -175 -51 -190 -3 -15 -10
-46 -16 -68 -12 -49 -11 -44 -47 -235 -17 -85 -32 -175 -35 -200 -3 -25 -9
-72 -13 -105 -10 -75 -11 -1282 -1 -1350 4 -27 10 -70 13 -95 3 -25 12 -81 20
-125 8 -44 20 -107 26 -140 51 -282 163 -664 279 -955 170 -426 362 -776 651
-1185 44 -62 250 -321 291 -365 13 -14 41 -46 62 -70 101 -116 343 -355 471
-465 44 -38 82 -71 85 -75 11 -13 238 -188 315 -242 44 -31 85 -61 90 -65 17
-14 296 -193 300 -193 2 0 42 -22 87 -49 188 -110 459 -241 708 -339 235 -93
612 -208 780 -238 14 -3 43 -10 65 -16 22 -5 49 -11 60 -13 11 -1 72 -12 135
-24 63 -11 138 -23 165 -26 28 -3 61 -8 75 -10 14 -2 52 -7 85 -10 33 -3 74
-8 90 -10 141 -19 713 -27 870 -12 39 3 106 8 150 11 44 3 89 7 100 10 11 2
52 7 90 12 39 4 72 8 75 9 3 1 30 5 60 9 56 9 76 12 120 21 14 2 40 7 58 10
28 5 159 32 187 39 6 2 28 7 50 11 22 5 42 10 45 10 304 77 642 193 905 310
170 76 458 226 590 308 109 68 297 191 365 240 79 57 312 238 336 261 6 6 37
34 69 61 80 68 218 200 334 319 109 112 96 97 180 196 36 41 70 80 76 85 50
47 310 402 424 580 117 182 267 459 352 649 22 50 47 105 54 121 73 161 180
471 249 720 46 167 116 508 131 635 12 103 17 144 21 164 2 12 6 53 8 91 3 39
8 104 13 145 4 41 7 203 7 360 1 303 -6 431 -34 655 -6 44 -12 97 -15 117 -10
85 -52 314 -82 443 -182 791 -526 1509 -1032 2149 -199 252 -456 522 -680 716
-35 30 -73 63 -85 73 -12 10 -36 31 -55 45 -19 15 -68 54 -110 87 -42 34 -92
72 -111 85 -19 13 -37 27 -40 30 -12 13 -284 193 -377 248 -109 66 -305 172
-418 226 -296 143 -466 208 -871 336 -69 22 -365 93 -464 111 -195 35 -212 38
-345 54 -27 4 -61 8 -75 10 -14 2 -59 7 -100 10 -41 4 -91 9 -110 11 -40 5
-647 13 -652 9z"/>
</g>
</svg>
